<?xml version="1.0" encoding="UTF-8"?>
<svg id="_レイヤー_2" data-name="レイヤー 2" xmlns="http://www.w3.org/2000/svg" viewBox="0 0 132 130.11">
  <defs>
    <style>
      .cls-1 {
        stroke: #2f266e;
      }

      .cls-1, .cls-2, .cls-3, .cls-4, .cls-5 {
        stroke-linecap: round;
        stroke-linejoin: round;
      }

      .cls-1, .cls-2, .cls-3, .cls-5 {
        fill: none;
      }

      .cls-1, .cls-2, .cls-5 {
        stroke-width: 3.39px;
      }

      .cls-6 {
        fill: #e1e2ff;
      }

      .cls-7 {
        fill: #97b332;
      }

      .cls-8 {
        fill: #30256e;
      }

      .cls-2 {
        stroke: #2e246c;
      }

      .cls-3 {
        stroke: #2e256c;
      }

      .cls-3, .cls-4 {
        stroke-width: 3.11px;
      }

      .cls-9 {
        fill: #7374ba;
      }

      .cls-4 {
        fill: #f7bd4e;
        stroke: #2f266d;
      }

      .cls-10 {
        fill: #bdd950;
      }

      .cls-11 {
        fill: #8eaafe;
      }

      .cls-5 {
        stroke: #2d236b;
      }

      .cls-12 {
        fill: #fefefe;
      }

      .cls-13 {
        fill: #e1f985;
      }

      .cls-14 {
        fill: #fcac48;
      }

      .cls-15 {
        fill: #c68035;
      }

      .cls-16 {
        fill: #cbd7ff;
      }

      .cls-17 {
        fill: #9da5db;
      }
    </style>
  </defs>
  <g id="_レイヤー_1-2" data-name="レイヤー 1">
    <g id="_生成オブジェクト" data-name="生成オブジェクト">
      <g>
        <g>
          <path class="cls-13" d="M129.72,6.61c-.52.07-3.45,0-3.7.28-.33.36-.03,1.16-.14,1.27-1.93,1.85-3.6,1.52-3.11,5.28-4.64-2.67-3.56-9.31,1.7-9.95,2.14-.26,4.24,1.31,5.26,3.11Z"/>
          <path class="cls-7" d="M129.72,6.61c2.31,4.08-2.71,9.28-6.95,6.84-.5-3.77,1.18-3.43,3.11-5.28.11-.11-.18-.92.14-1.27.26-.28,3.18-.21,3.7-.28Z"/>
        </g>
        <g>
          <path class="cls-11" d="M64.83,7.28c0,3.26,0,6.53,0,9.79l-.12.77c-36.22.18-58.74,39.64-40.48,70.91.05.09.1.18.16.27.21.36.43.71.65,1.06l-.34.18-12.72,7.91-.56.47c-.06-.09-.11-.18-.17-.26-6.2-9.95-9.51-21.45-9.56-33.17l.4-.1c1.44,0,2.88,0,4.32,0-.07-7.43,2.01-14.78,4.72-21.62,1.31-3.31,3.92-6.26,3.78-9.9.82.51,1.63,1.01,2.45,1.52-.66-3.48,2.85-6.95,5.08-9.42,2.99-3.33,8.04-8.34,12.46-8.84l.15.25-.15-.25c-.35-.57-.7-1.14-1.05-1.72,2.52.38,4.01-1.6,6.25-2.59,7.81-3.44,16.19-5.19,24.73-5.27Z"/>
          <path class="cls-9" d="M110.65,93.51c2.21,1.33,4.42,2.65,6.62,3.97l1.24.67c-18.08,27.79-51.26,38.37-81.42,23.58-.15-3.76,2.88-6.68,4.42-9.99,7.46,3.5,15.26,5.93,23.6,6.04,7.28.1,14.41-1.53,21.05-4.34,2.44-1.03,4.45-2.95,7.19-3.03l.15.25-.15-.25c-.34-.57-.69-1.15-1.03-1.72,2.38.33,4.21-1.44,5.99-2.88,1.62-1.3,9.64-9.66,10.03-11.16.17-.65-.3-1.68.33-2.32-.08-.05-.16-.1-.25-.15.08.05.16.1.25.15.57.35,1.15.69,1.72,1.03.08.05.16.1.25.15Z"/>
          <path class="cls-13" d="M106.2,17c.08.07.16.14.24.2-.09,5.66-3.53.1-6.7-.13-.44,1.58-4.06,6.33-3.82,7.49.14.65,7.53,7.62,8.76,9.89.91,1.69.96,2.89,1.54,4.63,4.03-2.45,8-5.05,12.2-7.2l.14-.49c.06.1-.2.39-.14.49,1.17,1.88,2.2,3.11,3.27,5.25.05.1.12.18.17.28-.05-.1-.12-.18-.17-.28-3.69.3-6.49,2.75-9.67,4.38,3.37,7.35,5.71,15.23,5.75,23.42.03,6.46-1.48,13.56-3.78,19.54-1.13,2.95-3.6,5.51-3.6,8.89.08.05.16.1.25.15-.08-.05-.16-.1-.25-.15-.57-.34-1.15-.69-1.72-1.03-.08-.05-.16-.1-.25-.15-1.06-.64-2.13-1.28-3.19-1.92l-.31-.31c4.67-7.48,7.15-16.15,7.15-24.96,0-16.23-8.36-31.33-22.11-39.95l.29-.62,6.36-10c-3.59.13-6.34-2.41-9.61-3.57-7.09-2.51-14.63-3.65-22.18-3.58,0-1.73,0-3.46,0-5.18l.09-.4c15.14,0,29.8,5.43,41.27,15.3Z"/>
          <path class="cls-7" d="M121.86,37.42c9.82,19.91,8.78,42.09-3.35,60.73l-1.24-.67c-2.21-1.33-4.42-2.65-6.62-3.97-.08-.05-.16-.1-.25-.15,0-3.38,2.47-5.94,3.6-8.89,2.3-5.98,3.81-13.07,3.78-19.54-.04-8.19-2.38-16.07-5.75-23.42,3.18-1.63,5.98-4.09,9.67-4.38.05.1.12.18.17.28Z"/>
          <path class="cls-16" d="M64.83,2.09c0,1.73,0,3.46,0,5.18-8.54.09-16.92,1.83-24.73,5.27-2.24.99-3.73,2.97-6.25,2.59.35.57.7,1.14,1.05,1.72l.15.25-.15-.25c-4.42.5-9.47,5.51-12.46,8.84-2.23,2.48-5.74,5.94-5.08,9.42-.82-.51-1.63-1.01-2.45-1.52.14,3.64-2.47,6.59-3.78,9.9-2.71,6.84-4.8,14.19-4.72,21.62-1.44,0-2.88,0-4.32,0l-.4-.21C1.72,30.14,29.85,1.88,64.61,1.7l.22.39Z"/>
          <path class="cls-16" d="M108.44,92.18c.08.05.16.1.25.15-.63.64-.16,1.66-.33,2.32-.4,1.5-8.41,9.86-10.03,11.16-1.78,1.43-3.61,3.21-5.99,2.88.34.57.69,1.15,1.03,1.72l.15.25-.15-.25c-2.74.09-4.75,2-7.19,3.03-6.65,2.81-13.78,4.44-21.05,4.34-8.34-.11-16.13-2.54-23.6-6.04-1.54,3.31-4.57,6.23-4.42,9.99-1.96-.96-3.87-2.03-5.73-3.19l.4-.59,7.91-12.72.37-.23c22.07,13.73,51.13,6.98,64.89-15.07l.31.31c1.06.64,2.13,1.27,3.19,1.92Z"/>
          <path class="cls-11" d="M28.67,95.09c3.17,3.81,6.93,7.12,11.12,9.76l-.11.39-7.91,12.72-.4.59c-7.07-4.43-13.22-10.23-18.04-17.04,5.66-.04,9.44-6.2,15.14-6.65.07.08.13.16.2.24Z"/>
          <path class="cls-10" d="M106.2,17c.08.07.16.14.24.2,4.72,4.11,8.8,8.89,12.13,14.19l-.14.49c-4.2,2.15-8.17,4.75-12.2,7.2-.58-1.74-.63-2.94-1.54-4.63-1.23-2.27-8.62-9.25-8.76-9.89-.25-1.16,3.38-5.91,3.82-7.49,3.17.23,6.61,5.8,6.7.13-.08-.07-.16-.14-.24-.2Z"/>
          <path class="cls-16" d="M28.67,95.09c-.07-.08-.13-.16-.2-.24-5.7.46-9.48,6.61-15.14,6.65-.66-.93-1.3-1.89-1.91-2.86-.06-.09-.11-.18-.17-.26.06.09.11.18.17.26l.56-.47,12.72-7.91.34-.18c1.04,1.66,2.19,3.25,3.43,4.77.07.08.13.16.2.24Z"/>
          <path class="cls-17" d="M90.27,24.42l-.29.62c13.75,8.62,22.12,23.72,22.11,39.95,0,8.82-2.49,17.49-7.15,24.96l.31.31-.31-.31c-13.76,22.05-42.82,28.79-64.89,15.07l-.37.23.11-.39c-4.19-2.65-7.95-5.95-11.12-9.76-.07-.08-.13-.16-.2-.24-1.24-1.52-2.39-3.11-3.43-4.77l-.34.18.34-.18c-.22-.35-.43-.7-.65-1.06-.05-.09-.1-.18-.16-.27.44.08,2.46-.49,2.58-.47.41.07,5.14,4.86,6.22,5.65,8.45,6.19,21.85,12.2,32.5,11.02,33.43-3.69,48.51-38.43,31.79-66.84-1.23-2.09-8.69-10.59-8.76-11.3-.01-.12.5-1.97.61-2.27-.09-.05-.18-.11-.27-.16.09.05.18.11.27.16.18.11.35.21.53.32l.55-.46Z"/>
          <path class="cls-10" d="M90.27,24.42l-.55.46c-.18-.11-.35-.22-.53-.32-.09-.05-.18-.11-.27-.16-7.32-4.33-15.7-6.59-24.2-6.55l.12-.77c0-3.26,0-6.53,0-9.79,7.56-.08,15.1,1.07,22.18,3.58,3.27,1.16,6.02,3.7,9.61,3.57l-6.36,10Z"/>
          <g>
            <path class="cls-6" d="M88.92,24.39c.09.05.18.11.27.16-.11.3-.63,2.15-.61,2.27.07.71,7.53,9.21,8.76,11.3,16.72,28.41,1.63,63.15-31.79,66.84-10.65,1.17-24.05-4.83-32.5-11.02-1.08-.79-5.8-5.58-6.22-5.65-.13-.02-2.15.55-2.58.47.05.09.1.18.16.27-.05-.09-.1-.18-.16-.27C5.98,57.48,28.5,18.02,64.72,17.84c8.51-.04,16.88,2.22,24.2,6.55Z"/>
            <g>
              <path class="cls-14" d="M49.86,44.09c-.09-.08-.19-.15-.28-.23-.27.07-1.98,1.48-1.98,1.61.04,1.04,2.26,6.73,2.83,8.05.2.47-.11,1.27.28,1.84,1.29,1.86,4.39-.33,3.11-2.12.06-1.27,1.71.09,2.12,0,.55-.12,1.34-2,.99-2.66,2.6,1.72,3.72.42,6.22.51,3.19.11,7.63,1.1,10.17-.68,1,2.62-1.13,3.15,2.54,2.83-.97,4.38,4.91,2.84,3.39.28,2.04-3.48,3.32-7.56,2.54-11.13,1.45-.89,2.38-1.06,3.11.68.9,2.14-.31,14.93.17,18.65.44,3.41,2.19,6.89,2.32,10.46-2.7.92-7.21-.61-9.44-.28-.17.02-1.44,1.3-2.66,1.36s-2.44-1.04-2.77-1.07c-1.47-.14-14.24-.62-14.97-.41,1.79-2.43-.14-5.92-3.16-5.64s-4.21,3.77-2.29,5.9c.07.08.14.15.22.22-.08-.07-.15-.14-.22-.22l-9.54.71c.02-4.01,1.69-7.06,2.2-10.74.74-5.33-.74-13.12,0-17.8.14-.87.66-2.51,1.7-2.54.84-.02,2.43,1.67,3.11,2.2.09.07.19.15.28.23Z"/>
              <path class="cls-17" d="M73.88,92.07c-6.35,5.56-7.82,8.57-15.54,2.26l.42-2.66c5.31,2.42,9.98-.27,15.12.4Z"/>
              <path class="cls-15" d="M81.79,42.39c.77,3.57-.51,7.65-2.54,11.13-1.06-1.78-2.69-.35-3.39-.28-3.67.32-1.54-.21-2.54-2.83,2.71-1.89,5.9-6.44,8.48-8.03Z"/>
              <path class="cls-15" d="M49.86,44.09c2.31,1.83,4.75,4.97,7.07,6.5.35.65-.44,2.54-.99,2.66-.41.09-2.06-1.27-2.12,0-.69-.96-2.84-.74-3.39.28-.56-1.32-2.79-7.02-2.83-8.05,0-.13,1.71-1.54,1.98-1.61.09.07.19.15.28.23Z"/>
              <path class="cls-8" d="M53.81,53.24c1.28,1.79-1.82,3.98-3.11,2.12-.4-.57-.08-1.36-.28-1.84.55-1.02,2.7-1.24,3.39-.28Z"/>
              <path class="cls-8" d="M79.25,53.53c1.52,2.55-4.37,4.1-3.39-.28.71-.06,2.33-1.5,3.39.28Z"/>
              <g>
                <path class="cls-12" d="M87.39,72.18c.05,1.35-.75,8.14-1.41,9.04-1.6,2.19-9.51,8.59-12.1,10.85-5.14-.67-9.81,2.03-15.12-.4l-.42,2.66c-2.63-2.15-12.81-11.14-14.36-13.4-.72-1.04-1.42-6.76-1.41-8.2l9.54-.71c.07.08.14.15.22.22,2.6,2.42,3.89-.1,5.23-.49.72-.21,13.5.26,14.97.41.33.03,1.55,1.13,2.77,1.07s2.49-1.33,2.66-1.36c2.22-.32,6.74,1.2,9.44.28Z"/>
                <path class="cls-8" d="M62.43,75.57c2.56-.4,9.47-.27,8.05,4.1-.54,1.67-5.5,3.89-2.68,5.79,1.78,1.2,2.49-.96,3.11-1.13,3.03-.84,3.64,2.6.85,4.24-3.57,2.1-5.57-.81-7.35-.57-.69.1-1.79,1.48-3.67,1.41s-6.27-2.9-3.96-4.8c1.25-1.03,6.22,3.12,6.36-.71.04-1.18-5.5-3.05-3.39-7.07.38-.72,1.97-1.16,2.68-1.27Z"/>
              </g>
              <path class="cls-4" d="M57.55,71.77c-1.35.39-2.64,2.9-5.23.49-.08-.07-.15-.14-.22-.22-1.92-2.13-.58-5.64,2.29-5.9,3.02-.28,4.95,3.21,3.16,5.64Z"/>
            </g>
          </g>
        </g>
      </g>
      <g>
        <path class="cls-5" d="M124.46,3.5c-5.26.63-6.33,7.28-1.7,9.95,4.24,2.44,9.27-2.76,6.95-6.84-1.02-1.79-3.12-3.37-5.26-3.11Z"/>
        <path class="cls-1" d="M74.72,65.96c2.53-.42,5.48,3.72,3.22,5.93-.17.02-1.44,1.3-2.66,1.36s-2.44-1.04-2.77-1.07c-2.23-2-.32-5.8,2.2-6.22Z"/>
        <path class="cls-3" d="M46.46,41.66c-1.04.03-1.56,1.68-1.7,2.54-.74,4.69.74,12.48,0,17.8-.51,3.68-2.19,6.73-2.2,10.74,0,1.43.7,7.15,1.41,8.2,1.55,2.25,11.72,11.25,14.36,13.4,7.73,6.31,9.19,3.29,15.54-2.26,2.59-2.26,10.49-8.66,12.1-10.85.66-.9,1.46-7.69,1.41-9.04-.13-3.57-1.88-7.04-2.32-10.46-.48-3.72.73-16.51-.17-18.65-.73-1.74-1.66-1.56-3.11-.68-2.58,1.58-5.77,6.14-8.48,8.03-2.55,1.77-6.99.79-10.17.68-2.5-.09-3.61,1.21-6.22-.51-2.32-1.53-4.76-4.67-7.07-6.5-.09-.08-.19-.15-.28-.23-.68-.53-2.27-2.23-3.11-2.2Z"/>
        <path class="cls-2" d="M65.12,112.87v14.41"/>
        <path class="cls-2" d="M97.49,117.27c-1.32-2.21-2.65-4.42-3.97-6.62l-.15-.25c-.34-.57-.69-1.15-1.03-1.72l-2.06-3.44"/>
        <line class="cls-2" x1="31.77" y1="117.96" x2="39.68" y2="105.24"/>
        <path class="cls-2" d="M105.25,39.68l.98-.6c4.03-2.45,8-5.05,12.2-7.2,1.17,1.88,2.2,3.11,3.27,5.25.05.1.12.18.17.28,9.82,19.91,8.78,42.09-3.35,60.73-18.08,27.79-51.26,38.37-81.42,23.58-1.96-.96-3.87-2.03-5.73-3.19-7.07-4.43-13.22-10.23-18.04-17.04-.66-.93-1.3-1.89-1.91-2.86-.06-.09-.11-.18-.17-.26-6.2-9.95-9.51-21.45-9.56-33.17,0-.1,0-.21,0-.31C1.72,30.14,29.85,1.88,64.61,1.7c.1,0,.21,0,.31,0,15.14,0,29.8,5.43,41.27,15.3.08.07.16.14.24.2,4.72,4.11,8.8,8.89,12.13,14.19"/>
        <path class="cls-2" d="M127.01,65.12c-3.07-.06-6.15-.13-9.22-.19l-4.91-.1"/>
        <path class="cls-2" d="M105.25,90.26c1.06.64,2.13,1.27,3.19,1.92.08.05.16.1.25.15.57.35,1.15.69,1.72,1.03.08.05.16.1.25.15,2.21,1.33,4.42,2.65,6.62,3.97"/>
        <line class="cls-2" x1="24.7" y1="90.26" x2="11.99" y2="98.18"/>
        <path class="cls-2" d="M64.83,2.09c0,1.73,0,3.46,0,5.18,0,3.26,0,6.53,0,9.79"/>
        <path class="cls-2" d="M24.7,39.68l-7.34-4.57c-.82-.51-1.63-1.01-2.45-1.52l-2.93-1.83"/>
        <path class="cls-2" d="M2.09,65.11c1.44,0,2.88,0,4.32,0,3.55,0,7.11,0,10.66,0"/>
        <path class="cls-2" d="M98.18,11.98c-.52.81-1.03,1.63-1.55,2.44l-6.36,10"/>
        <path class="cls-2" d="M112.09,64.99c0-16.23-8.36-31.33-22.11-39.95-.09-.05-.18-.11-.26-.16-.18-.11-.35-.22-.53-.32-.09-.05-.18-.11-.27-.16-7.32-4.33-15.7-6.59-24.2-6.55-36.22.18-58.74,39.64-40.48,70.91.05.09.1.18.16.27.21.36.43.71.65,1.06,1.04,1.66,2.19,3.25,3.43,4.77.07.08.13.16.2.24,3.17,3.81,6.93,7.12,11.12,9.76.09.06.17.11.26.16,22.07,13.73,51.13,6.98,64.89-15.07,4.67-7.48,7.15-16.15,7.15-24.96Z"/>
        <path class="cls-2" d="M31.77,11.7l2.09,3.43c.35.57.7,1.14,1.05,1.72l.15.25c1.54,2.53,3.09,5.07,4.63,7.6"/>
      </g>
    </g>
  </g>
</svg>